<?xml version="1.0" encoding="UTF-8"?><svg id="a" xmlns="http://www.w3.org/2000/svg" viewBox="0 0 891.9268 937.2481"><defs><style>.b{fill:#0a784a;}.c{fill:#225aa9;}</style></defs><path class="c" d="M292.441,395.7948l49.2056,26.4283,17.7986,9.5838.0415-142.0983c0-7.2604,3.1116-13.8156,8.0488-18.3793h-173.9988c-7.6163,0-13.7905,6.1742-13.7905,13.7904v157.0331c0,10.1267,5.5526,19.438,14.4621,24.2518l82.094,44.3551c4.7025,2.5388,7.6337,7.4524,7.6337,12.7966v80.1406c0,8.321-6.9624,14.9575-15.3393,14.4984-7.836-.4295-13.7027-7.4657-13.7027-15.3135v-63.4188c.0001-5.3438-2.9312-10.2571-7.6337-12.7955l-67.5141-36.3025c-.1002,31.2488.0564,126.5396,0,162.0258-.0121,7.6248,6.1162,13.785,13.7411,13.785h171.5588c-3.4848-4.2734-5.5593-9.7913-5.5593-15.7241v-168.9021c0-10.1211-5.5467-19.4282-14.4486-24.2444l-81.639-44.1681c-4.7296-2.5307-7.6753-7.4267-7.6753-12.7785v-70.3358c0-7.7533,5.7774-14.6656,13.5136-15.1799,4.4276-.2942,8.4216,1.3649,11.2963,4.2399,2.6139,2.6135,4.232,6.2645,4.232,10.2476v53.6861c0,5.352,2.9458,10.2476,7.6753,12.7785Z"/><path class="c" d="M712.1809,666.0098v-380.8902c0-7.6162-6.1742-13.7904-13.7904-13.7904h-174.153c4.9787,4.5221,8.0904,11.0774,8.0904,18.3793v360.3696c0,6.1304-2.2096,11.7933-5.8554,16.0858.0037.0078.0018.0041.0055.0118l80.4877-.0415v-139.2584l29.0419-15.4408v154.6992l76.1732-.1245ZM606.9658,469.7875v-140.4573c0-8.0073,6.4722-14.521,14.521-14.521,3.9829,0,7.6339,1.618,10.2477,4.2734,2.6554,2.6135,4.2732,6.2645,4.2732,10.2476v125.0167l-29.0419,15.4406Z"/><path class="b" d="M192.3804,247.9077h507.0916c7.0229,0,12.716-5.6931,12.716-12.716v-55.3474H179.6642v55.3474c0,7.0229,5.6933,12.716,12.7162,12.716Z"/><path class="b" d="M699.4719,689.4206h-182.3363l12.1466,16.1991-53.1084,39.8191-42.0041-56.0183h-241.7895c-7.0229,0-12.7159,5.6934-12.7159,12.7163v55.3473h532.5238v-55.3473c0-7.0229-5.6933-12.7163-12.7162-12.7163Z"/><rect class="c" x="426.5061" y="314.8092" width="38.4767" height="306.6418" rx="19.2383" ry="19.2383"/></svg>