<svg viewBox="0 0 446 470" xmlns="http://www.w3.org/2000/svg" role="img" aria-label="SQA">
  <rect width="446" height="60" fill="#2F6B4F"/>
  <rect x="195" y="60" width="56" height="22" fill="#2F6B4F"/>

  <path d="M 60 110 L 145 110 L 145 140 L 90 140 L 90 175 L 130 175 L 145 175 L 145 290 L 50 290 L 50 260 L 115 260 L 115 205 L 75 205 L 60 205 Z" fill="#1E3A5F"/>

  <rect x="180" y="110" width="35" height="180" fill="#1E3A5F"/>
  <rect x="180" y="110" width="125" height="35" fill="#1E3A5F"/>
  <rect x="270" y="110" width="35" height="115" fill="#1E3A5F"/>
  <rect x="180" y="255" width="125" height="35" fill="#1E3A5F"/>
  <rect x="265" y="245" width="50" height="55" fill="#1E3A5F"/>

  <rect x="340" y="110" width="35" height="180" fill="#1E3A5F"/>
  <rect x="340" y="110" width="56" height="35" fill="#1E3A5F"/>
  <rect x="361" y="145" width="35" height="35" fill="#1E3A5F"/>

  <rect y="358" width="446" height="60" fill="#2F6B4F"/>
  <polygon points="200,418 246,418 223,452" fill="#2F6B4F"/>
</svg>
