<svg width="200" height="100" viewBox="0 0 200 100" fill="none" xmlns="http://www.w3.org/2000/svg">
  <!-- Green sides -->
  <rect x="0" y="0" width="28" height="100" fill="#2D7A4F"/>
  <rect x="172" y="0" width="28" height="100" fill="#2D7A4F"/>

  <!-- Blue center with white S, Q, A letters -->
  <rect x="35" y="5" width="130" height="90" rx="8" fill="#3B5CA8"/>

  <!-- Letter S -->
  <path d="M50 30 L90 30 L90 20 L50 20 Q45 20 45 25 L45 35 Q45 40 50 40 L85 40 Q90 40 90 45 L90 60 Q90 65 85 65 L50 65 L50 55 L85 55 L85 50 L50 50 Q45 50 45 45 L45 25 Q45 20 50 20" fill="white"/>

  <!-- Letter Q -->
  <path d="M50 75 Q45 75 45 80 L45 90 Q45 95 50 95 L85 95 Q90 95 90 90 L90 80 Q90 75 85 75 L50 75 M50 85 L85 85 M80 90 L90 95" stroke="white" stroke-width="5" fill="none"/>

  <!-- Letter A -->
  <path d="M100 65 L110 20 L120 20 L130 65 L120 65 L118 50 L112 50 L110 65 Z M113 40 L117 40 L115 30 Z" fill="white"/>

  <!-- Arrow on right side -->
  <path d="M172 40 L195 50 L172 60 Z" fill="white"/>
</svg>
