<svg viewBox="0 0 446 432" fill="none" xmlns="http://www.w3.org/2000/svg">
  <!-- Top green bar -->
  <rect width="446" height="76" fill="#3A7556"/>

  <!-- Blue center rectangle -->
  <rect y="76" width="446" height="280" fill="#3D5BA3"/>

  <!-- Letter S -->
  <path d="M 30 140 L 130 140 L 130 110 L 60 110 L 60 180 L 120 180 L 120 260 L 30 260 L 30 290 L 135 290 L 135 170 L 75 170 L 75 120 L 145 120 L 145 100 L 30 100 Z" fill="white"/>

  <!-- Letter I (vertical bar) -->
  <rect x="165" y="100" width="40" height="190" fill="white"/>

  <!-- Letter Q -->
  <rect x="225" y="100" width="40" height="190" fill="white"/>
  <rect x="225" y="100" width="115" height="40" fill="white"/>
  <rect x="300" y="100" width="40" height="115" fill="white"/>
  <rect x="225" y="250" width="115" height="40" fill="white"/>

  <!-- Letter A -->
  <rect x="360" y="100" width="40" height="190" fill="white"/>
  <rect x="360" y="100" width="56" height="40" fill="white"/>
  <rect x="376" y="140" width="40" height="40" fill="white"/>

  <!-- Bottom green bar with arrow -->
  <rect y="356" width="446" height="76" fill="#3A7556"/>
  <path d="M 400 394 L 446 394 L 423 418 Z" fill="white"/>
</svg>
